{"title":"Conviction Murder at the Station 1of2 WEB-DL XviD-MCTV","uid":15875989,"size":365248066,"categoryP":"video","categoryS":"tv_shows","magnet":"?xt=urn:btih:86bb5e19b46c2e2cfe4548e29a5195d1208d670b&amp;dn=Conviction+Murder+at+the+Station+1of2+WEB-DL+XviD-MCTV&amp;tr=udp%3A%2F%2Ftracker.leechers-paradise.org%3A6969&amp;tr=udp%3A%2F%2Fzer0day.ch%3A1337&amp;tr=udp%3A%2F%2Fopen.demonii.com%3A1337&amp;tr=udp%3A%2F%2Ftracker.coppersurfer.tk%3A6969&amp;tr=udp%3A%2F%2Fexodus.desync.com%3A6969","seeders":19,"leechers":4,"uploader":"Mulva1989","files":3,"time":1474509273,"description":"Conviction Murder at the Station 1of2 WEB-DL XviD-MCTV \nhttp://www.bbc.co.uk/programmes/b07wzjmf\r\n\r\nConviction: Murder at the Station - Episode 1 of 2 \r\nDocumentary following a team of experts as they investigate whether evidence exists that could challenge the conviction of a man in prison for a murder he denies.\r\n\r\nEnglish subtitles included.\r\n\r\nScreens @ \nhttps://extraimago.com/images/2016/09/22/fe4680428b874ae4a0aeea2fa2fa40ff.jpg \nhttps://extraimago.com/images/2016/09/22/798c6b25988b256692a9e9d00ccd1818.jpg \nhttps://extraimago.com/images/2016/09/22/c2ce84f7b2b24fcbf21d1e125e078fff.jpg\r\n\r\n[img]http://i.imgur.com/tXvdYIX.jpg[/img]\r\n\r\nFormat                      : AVI\r\nFormat/Info                 : Audio Video Interleave\r\nFile size                   : 348 MiB\r\nDuration                    : 56mn 39s\r\nOverall bit rate            : 859 Kbps\r\nWriting library             : VirtualDub build 35491/release\r\n\r\nVideo\r\nID                          : 0\r\nFormat                      : MPEG-4 Visual\r\nFormat profile              : Advanced   \r\nFormat settings, BVOP       : 2\r\nFormat settings, QPel       : No\r\nFormat settings, GMC        : No warppoints\r\nFormat settings, Matrix     : Default (H.263)\r\nCodec ID                    : XVID\r\nCodec ID/Hint               : XviD\r\nDuration                    : 56mn 39s\r\nBit rate                    : 722 Kbps\r\nWidth                       : 720 pixels\r\nHeight                      : 404 pixels\r\nDisplay aspect ratio        : 16:9\r\nFrame rate                  : 25.000 fps\r\nColor space                 : YUV\r\nChroma subsampling          : 4:2:0\r\nBit depth                   : 8 bits\r\nScan type                   : Progressive\r\nCompression mode            : Lossy\r\nBits/(Pixel*Frame)          : 0.099\r\nStream size                 : 292 MiB (84%)\r\nWriting library             : XviD 1.2.1 (UTC 2008-12-04)\r\n\r\nAudio\r\nID                          : 1\r\nFormat                      : MPEG Audio\r\nFormat version              : Version 1\r\nFormat profile              : Layer 3\r\nMode                        : Joint stereo\r\nMode extension              : MS Stereo\r\nCodec ID                    : 55\r\nCodec ID/Hint               : MP3\r\nDuration                    : 56mn 39s\r\nBit rate mode               : Constant\r\nBit rate                    : 128 Kbps\r\nChannel(s)                  : 2 channels\r\nSampling rate               : 48.0 KHz\r\nCompression mode            : Lossy\r\nDelay relative to video     : 8ms\r\nStream size                 : 51.9 MiB (15%)\r\nAlignment                   : Split accross interleaves\r\nInterleave, duration        : 40 ms (1.00 video frame)\r\nInterleave, preload duratio : 500 ms","torrent":{"xt":"urn:btih:86bb5e19b46c2e2cfe4548e29a5195d1208d670b","amp;dn":"Conviction+Murder+at+the+Station+1of2+WEB-DL+XviD-MCTV","amp;tr":["udp%3A%2F%2Ftracker.leechers-paradise.org%3A6969","udp%3A%2F%2Fzer0day.ch%3A1337","udp%3A%2F%2Fopen.demonii.com%3A1337","udp%3A%2F%2Ftracker.coppersurfer.tk%3A6969","udp%3A%2F%2Fexodus.desync.com%3A6969"],"infoHash":"86bb5e19b46c2e2cfe4548e29a5195d1208d670b","infoHashBuffer":{"type":"Buffer","data":[134,187,94,25,180,108,46,44,254,69,72,226,154,81,149,209,32,141,103,11]},"announce":[],"urlList":[]}}